<?xml version="1.0" encoding="utf-8"?>
<!-- Generator: Adobe Illustrator 23.0.0, SVG Export Plug-In . SVG Version: 6.00 Build 0)  -->
<svg version="1.1" id="Layer_1" xmlns="http://www.w3.org/2000/svg" xmlns:xlink="http://www.w3.org/1999/xlink" x="0px" y="0px"
	 viewBox="0 0 952.6 952.6" style="enable-background:new 0 0 952.6 952.6;" xml:space="preserve">
<style type="text/css">
	.st0{fill:#232323;}
	.st1{fill:none;stroke:#232323;stroke-width:20;stroke-linecap:round;stroke-miterlimit:10;}
	.st2{fill:#232323;stroke:#232323;stroke-width:20;stroke-linecap:round;stroke-linejoin:round;stroke-miterlimit:10;}
	.st3{fill:none;stroke:#232323;stroke-width:28;stroke-miterlimit:10;}
</style>
<g>
	<g>
		<path class="st1" d="M580.9,581.4c0.9-5.5,1.4-11.2,1.4-16.9c0-58.5-47.4-105.9-105.9-105.9s-105.9-47.4-105.9-105.9
			c0-15.8,3.5-30.8,9.7-44.2h0.3c42.4,0,78.9,24.8,96,60.8c17-35.9,53.6-60.8,96-60.8c58.6,0,106.2,47.6,106.2,106.2
			C678.5,414.6,689.9,496,580.9,581.4z"/>
		<path class="st2" d="M582.2,564.5c0,5.8-0.5,11.4-1.4,16.9c-26.9,21.1-61.1,42.4-104.6,62.8C256.3,541.1,274,414.6,274,414.6
			c0-58.6,47.4-106.1,105.9-106.2c-6.2,13.4-9.7,28.4-9.7,44.2c0,58.5,47.4,105.9,105.9,105.9C534.8,458.5,582.2,506,582.2,564.5z"
			/>
	</g>
</g>
</svg>
