<svg xmlns="http://www.w3.org/2000/svg" xmlns:xlink="http://www.w3.org/1999/xlink" id="Layer_1" x="0" y="0" version="1.1" viewBox="0 0 952.6 952.6" xml:space="preserve" style="enable-background:new 0 0 952.6 952.6"><style type="text/css">.st0{fill:#232323}</style><g id="Layer_4"><path d="M476.3,275.3c-111,0-201,90-201,201c0,110.8,90.2,201,201,201c111,0,201-90,201-201 C677.3,365.5,587.1,275.3,476.3,275.3z M326.8,476.3c0-72.1,51.1-132.3,119.1-146.4c6.2-1.3,11.4,4.8,9.1,10.7l-54.7,141.9 c-2,5.2,1.8,10.9,7.5,10.9h46.4c5.6,0,9.4,5.5,7.5,10.8l-40.8,111C365.7,593.1,326.8,539.3,326.8,476.3z M476.4,625.8 c-13,0-25.6-1.6-37.6-4.7l109.7-155.8c3.7-5.3-0.1-12.6-6.5-12.6h-51.4c-5.9,0-9.7-6.1-7.2-11.4l45.6-96.5c1.9-4,6.6-5.7,10.6-3.8 c50.4,23.6,85.4,74.4,86.2,133.5C626.9,556.8,558.9,625.7,476.4,625.8z" class="st0"/></g></svg>