<svg xmlns="http://www.w3.org/2000/svg" xmlns:xlink="http://www.w3.org/1999/xlink" id="Layer_1" x="0" y="0" version="1.1" viewBox="0 0 952.6 952.6" xml:space="preserve" style="enable-background:new 0 0 952.6 952.6"><style type="text/css">.st0{fill:#232323}</style><g><g><polygon points="572.9 536.2 612.9 536.2 546.3 336.2 483.3 336.2 470.8 374 518.9 374.2 532.9 416.2 475.8 444.8 456.3 386.4 393.4 386.4 380.8 424.4 429 424.4 441.5 461.9 372.9 496.2 372.9 536.2 544.3 450.4" class="st0"/><path d="M406.7,530.4c0.2,1.9,0.3,3.8,0.3,5.7c0,27.8-22.6,50.4-50.4,50.4s-50.4-22.6-50.4-50.4s22.6-50.4,50.4-50.4 c4.1,0,8.1,0.5,11.9,1.4l33.6-16.8c-12.9-9-28.6-14.2-45.5-14.2c-44.2,0-80,35.8-80,80s35.8,80,80,80s80-35.8,80-80 c0-6.7-0.8-13.2-2.4-19.5L406.7,530.4z" class="st0"/><path d="M596.8,456.2l10.3,30.8c22.5,5,39.4,25.1,39.4,49.2c0,27.8-22.6,50.4-50.4,50.4s-50.4-22.6-50.4-50.4 c0-9.9,2.8-19.1,7.7-26.8l-10.9-32.6c-16.3,14.6-26.5,35.9-26.5,59.5c0,44.2,35.8,80,80,80s80-35.8,80-80 C676,492.2,640.7,456.5,596.8,456.2z" class="st0"/></g></g></svg>