<svg xmlns="http://www.w3.org/2000/svg" xmlns:xlink="http://www.w3.org/1999/xlink" id="Layer_1" x="0" y="0" version="1.1" viewBox="0 0 952.6 952.6" xml:space="preserve" style="enable-background:new 0 0 952.6 952.6"><style type="text/css">.st0{fill:#232323}</style><g><path d="M641.2,430.4c-5.2-35-56-54.4-69.6-59l0,0c-5.8-11.5-17.9-25.9-42.7-24.9c-3.9,0.2-7.4,0.8-10.3,1.8l0,0 c-24.2-15.6-52.3-20.1-81.6-13c-18.5,4.5-32.1,12.2-36.9,15.2l0,0c-16.5,1.2-27.8,8.5-32.2,11.9l0,0c-7.2,0.1-23.3,12.8-23.5,12.9 c-8.5,6.7-19.2,17.3-21.7,29.1c-0.3,1.4-0.5,2.7-0.8,4l0,0c-12.6,4.8-26.9,27.9-27.5,52.8c-0.6,22.3,16.2,39.4,23.6,45.9l0,0 c-0.1,2.1,0,4.2,0.2,6.3c2.1,16.7,15.3,32.4,34.5,40.9c7.6,3.4,14.9,5.5,21.9,6.5l0,0c-0.4,1.3-0.9,2.6-1.3,3.9 c-8.5,25.5-12.8,38.3-7.6,47.6c2.3,4,6.1,6.7,11.4,7.9c0.7,0.2,1.4,0.3,2,0.3c3.7,0,6.5-2.8,12.8-9.4 c10.6-10.9,32.8-33.7,53.5-38.2c5.3-1.1,13-8.2,23-21.1l0,0c14.1,5.8,31.8,9.5,48.8,9.6c0.1,0,0.2,0,0.3,0 c22.9,0,38.5-17.7,45.3-27.4l0,0c1.4,0.6,2.6,1,3.3,1.3c0.1,0,0.3,0.1,0.4,0.1c10,2.9,18.5,4.1,25.9,4.1c20.3,0,32.1-8.9,41.4-16 c0.7-0.5,1.4-1,2.1-1.5c12.4-9.2,19.7-21,21.7-35C661.3,461.7,645.8,437.1,641.2,430.4L641.2,430.4z M309.2,461.6 c0.4-14.8,6.4-26.8,11.6-33.5h0.1c1.6,21.7,11.7,35.2,12.2,35.9c2.5,3.3,7.2,3.9,10.5,1.5c3.3-2.5,4-7.2,1.5-10.5 c-0.6-0.8-14-19.3-7.9-47.5c2.8-12.9,26.2-28.2,31.6-30.2l0,0c0.6,0,1.2-0.1,1.9-0.2c2.8-0.4,7.1-0.9,9.6,1.2 c2.1,1.7,3.5,5.5,3.9,10.8c0.8,10-3,16.5-7.3,24c-4.8,8.3-10.2,17.7-9.3,31.9c0.6,10.2,1.8,18.7,3.6,25.9l0,0 c-9.5-3.1-23.3-3.2-38.9,9c-4,3.2-7.3,6.9-9.7,10.9c0,0,0,0-0.1,0C316.5,484.4,308.9,473.8,309.2,461.6z M517.5,546.5 c-0.1,0-0.1,0-0.2,0c-27-0.2-52.3-10-60.4-19.1c-2.5-2.8-6.6-3.6-9.8-1.6c-4,2.5-4.7,7.9-1.7,11.3c2.4,2.7,5.5,5.4,9.3,7.8 c0,0,0,0,0,0.1c-5.4,6.6-10.8,12.3-12.9,13.5l0,0c-25.1,5.6-48.2,29.4-60.7,42.3c-0.9,0.9-1.8,1.8-2.6,2.7h-0.1 c-0.1-1.3,0.1-3.5,0.9-7.1c1.4-6.5,4.4-15.5,8.2-26.8c0.9-2.7,1.8-5.5,2.8-8.5l0,0c5.1-0.8,9.8-2.4,13.8-4.8 c8-4.9,12.7-12.7,13.2-21.9c1.4-23.9-43.2-29.8-52.2-30.7c-4.2-0.4-7.9,2.7-8.3,6.9c-0.3,4.1,3,7.6,7.1,8.1 c17.8,1.9,38.7,9,38.4,14.9c-0.2,4.3-2.3,7.6-6.1,10c-8.3,5.1-22.4,4.1-37.7-2.7c-14.4-6.4-24.3-17.5-25.7-29 c-1-7.8,2-14.6,8.7-19.8c18.4-14.4,30.2-3.7,30.3-3.7c3.8,3.8,40.1,26.2,62,29.3c11.3,1.6,26.4-0.3,39.5-4.4l0,0 c10.8,13.4,33.1,21.5,35.9,22.4c0.8,0.3,1.6,0.4,2.5,0.4c3.1,0,6-1.9,7.1-5c1.4-3.9-0.7-8.2-4.6-9.5c-5.2-1.8-18.4-7.5-26.1-14.4 c0,0,0,0,0-0.1c5.7-3.2,10.1-6.9,12.3-11c1.8-3.3,0.8-7.9-2.2-10c-3.9-2.6-9-1.2-11,2.8c-1,2-7.1,6.6-19.4,10.3 c-11.3,3.4-23.5,4.8-31.9,3.6c-11.8-1.7-30.3-11-42.3-18l0,0c-6.4-8-9.8-20.2-11.1-40.4c-0.6-9.7,3-16.1,7.3-23.5 c4.8-8.4,10.3-18,9.2-32.6c-0.7-9.2-3.5-16.1-8.5-20.6v-0.1c6.2-1.9,14.3-2.9,23.8-1.1c13,2.4,18.2,12.2,16.9,31.7 c-0.1,1-0.1,1.7-0.1,2.3c0,2.5,1.9,18.7,8.2,30.3l0,0c-26.2,15.1-26.3,38.7-26.3,39.8c0.1,4.1,3.4,7.4,7.5,7.4h0.1 c4.1-0.1,7.5-3.4,7.4-7.6c0-0.8,0.5-17.9,22-28.5l0,0c7.3,4.4,17.7,7.7,28.9,7.7c2.9,0,5.8-0.2,8.7-0.7l0,0 c4.7,13.6,13,25.9,24.4,36.2c8.8,7.9,17.6,13,23.2,15.8l0,0c-0.1,2.2-0.1,4.5,0.2,7c1,8.2,7.1,14.5,13.6,19.1l0,0 C543.8,534.5,532.5,546.5,517.5,546.5z M642.8,485c-1.4,10-6.6,18.2-15.8,25.1c-0.7,0.5-1.4,1.1-2.1,1.6 c-11.8,8.9-24.1,18.2-53.9,9.5l0,0c-2.2-0.8-4.6-1.9-7-3.1c-0.1-0.1-0.2-0.1-0.3-0.2c-0.1-0.1-0.3-0.1-0.4-0.2 c-6.2-3.4-12-7.9-12.4-11.7c-0.6-4.5,0-7.4,1.6-8.8c1.6-1.3,8.6-5,33.6,2.6c15.7,4.8,31.7-8.1,33.5-9.6c3.2-2.6,3.6-7.4,1-10.5 c-2.6-3.2-7.4-3.6-10.6-1c-2.9,2.4-12.8,8.8-19.6,6.8c-23.7-7.2-38.9-7.1-47.7,0.3c-0.4,0.4-0.9,0.8-1.3,1.2l0,0 c-4.8-2.4-12.1-6.8-19.4-13.4c-15.7-14.4-23.8-32.4-23.9-53.5c0-4.1-3.1-7.7-7.3-7.8c-4.3-0.1-7.7,3.3-7.7,7.5 c0,4.9,0.4,9.8,1.1,14.5l0,0c-11.2,1.4-22.6-2.1-28.6-6.8c-5.4-4.2-9.4-22.5-9.4-27.1c0-0.3,0-0.8,0.1-1.3 c1.8-27.2-8.5-39.3-20-44.6v-0.1c4.3-1.7,9.2-3.2,14.6-4.5c23.3-5.5,44.8-2.8,64.3,8c0,0,0,0,0,0.1c-2,2.6-3.4,5.5-4.5,8.4l0,0 c-15-5.4-36-4.6-38.9-4.5c-4.1,0.2-7.3,3.7-7.1,7.8s3.7,7.4,7.8,7.1c10.7-0.5,27.4,0.7,35.5,4.5l0,0c-0.3,8.5,1.2,15.5,1.5,16.8 c0.9,4,5,6.6,9,5.6c4-0.9,6.6-5,5.6-9c-1.1-4.8-2.9-20.2,3.1-28c2.6-3.4,6.6-5.2,12.2-5.4c17.8-0.7,25.9,10,29.6,18.2 c0.2,0.5,0.4,1,0.6,1.5c1.2,3,1.7,5.4,1.9,6.6c1.5,7.8,24.5,36.5,30.8,40.7c1.3,0.9,2.7,1.3,4.2,1.3c2.4,0,4.8-1.2,6.2-3.3 c2.3-3.4,1.4-8.1-2.1-10.4c-3.3-2.3-14.6-16.4-20.7-25.3v-0.1c20.1,8.8,46.5,24.9,46.6,45.4c0.1,12.6-4.8,15.3-6.4,16.2 c-8.7,4.9-25.8-0.9-30.9-4c-4-2.4-8-5.8-11.7-9.7c-0.2-0.3-0.4-0.5-0.7-0.7c-10.5-10.9-19.4-25.1-22.1-30.7 c-1.9-3.7-6.4-5.2-10.1-3.4c-3.7,1.9-5.2,6.4-3.4,10.1c2.1,4.2,9.1,16.1,18.7,27.6v0.1c-2,0.6-4.1,0.8-6.3,0.6 c-10.8-1.2-21.5-12.3-24.8-16.4c-2.5-3.3-7.2-3.9-10.5-1.4s-3.9,7.2-1.4,10.5c0.6,0.8,15.6,20.1,35,22.2c1.2,0.1,2.4,0.2,3.6,0.2 c5.4,0,10.6-1.4,15.4-4.1l0,0c3.3,3,6.8,5.8,10.4,8c5.5,3.4,17.8,8.1,29.8,8.1c5.7,0,11.4-1.1,16.2-3.8c3.4-1.9,7.2-5.1,9.9-10.3 h0.1C641.3,463.6,644.3,474.4,642.8,485z" class="st0"/></g></svg>