<svg xmlns="http://www.w3.org/2000/svg" xmlns:xlink="http://www.w3.org/1999/xlink" id="Layer_1" x="0" y="0" version="1.1" viewBox="0 0 952.6 952.6" xml:space="preserve" style="enable-background:new 0 0 952.6 952.6"><style type="text/css">.st0{fill:#232323}</style><g id="Layer_3"><path d="M692.3,662.3v-16h-10v-200l-85-70v268h-8v-308h-18v-40h-45v-30h-45h-10h-45v30h-45v40h-18v308h-8v-268l-85,70 v200h-10v16h-14v24h225h10h225v-24H692.3z M305.3,617.3h-4v-24h4V617.3z M305.3,560.3h-4v-24h4V560.3z M305.3,503.3h-4v-24h4V503.3 z M338.3,617.3h-4v-24h4V617.3z M338.3,560.3h-4v-24h4V560.3z M338.3,503.3h-4v-24h4V503.3z M338.3,446.3h-4v-24h4V446.3z M446.3,596.3h-40v-40h40V596.3z M446.3,536.3h-40v-40h40V536.3z M446.3,476.3h-40v-40h40V476.3z M446.3,416.3h-40v-40h40V416.3z M546.3,596.3h-40v-40h40V596.3z M546.3,536.3h-40v-40h40V536.3z M546.3,476.3h-40v-40h40V476.3z M546.3,416.3h-40v-40h40V416.3z M618.3,617.3h-4v-24h4V617.3z M618.3,560.3h-4v-24h4V560.3z M618.3,503.3h-4v-24h4V503.3z M618.3,446.3h-4v-24h4V446.3z M651.3,617.3h-4v-24h4V617.3z M651.3,560.3h-4v-24h4V560.3z M651.3,503.3h-4v-24h4V503.3z" class="st0"/></g></svg>