<svg xmlns="http://www.w3.org/2000/svg" xmlns:xlink="http://www.w3.org/1999/xlink" id="Layer_1" x="0" y="0" version="1.1" viewBox="0 0 952.6 952.6" xml:space="preserve" style="enable-background:new 0 0 952.6 952.6"><style type="text/css">.st0{fill:#232323}</style><g id="Layer_5"><g><g><g><path d="M607.9,461.2l0.1-6.4c0-1.1,0.1-2.2,0-3.2l-0.1-3.2l-0.1-3.2l-0.1-1.6c0-0.5-0.1-1.1-0.2-1.6l-0.6-6.5 c-0.1-1.1-0.3-2.2-0.5-3.2l-0.5-3.2l-0.5-3.3c-0.2-1.1-0.5-2.1-0.7-3.2c-0.5-2.1-0.9-4.3-1.4-6.5l-1.8-6.4 c-2.6-8.5-5.8-17-9.9-25.1l-1.5-3.1l-1.7-3c-1.1-2-2.2-4-3.4-6c-2.5-3.8-4.9-7.8-7.8-11.4c-10.9-15-24.9-28.1-40.8-39 c-8-5.4-16.5-10.1-25.5-14.2c-9-4-18.4-7.3-28.1-9.7c10,0.3,20.1,1.5,30,3.5c10,2.1,19.9,5,29.5,8.8 c19.2,7.7,37.7,18.5,53.8,32.7c4.2,3.4,7.9,7.3,11.8,11.1c1.9,1.9,3.7,4,5.5,6l2.7,3l2.6,3.2c7,8.4,13,17.7,18.6,27.3l4,7.3 c1.2,2.5,2.4,5,3.6,7.6c0.6,1.3,1.2,2.5,1.7,3.8l1.6,3.9l1.6,3.9c0.5,1.3,1.1,2.6,1.5,4l2.7,8.1c0.2,0.7,0.4,1.3,0.6,2l0.6,2.1 l1.1,4.1l1.1,4.1c0.4,1.4,0.6,2.8,0.9,4.2l1.7,8.4L607.9,461.2z" class="st0"/><g><polygon points="679.7 449.5 626.1 526.1 586.6 441.3" class="st0"/></g></g></g><g><g><path d="M399.7,609.9c15.6,9.1,33.1,15.5,51.7,18.5c18.6,3.1,38.1,2.7,57.3-1.2c19.2-3.9,38.1-11.4,55.3-22.3 s32.8-25.2,45.5-42.1c-8.9,19.2-21.5,37.1-37.2,52.5c-15.7,15.3-34.5,28-55.4,37.1c-20.8,9.1-43.7,14.5-67.2,15.7 s-47.7-2-70.8-9.5L399.7,609.9z" class="st0"/><g><polygon points="376.8 679.3 333.6 596.3 427 600.4" class="st0"/></g></g></g><g><g><path d="M396.1,337.5c-19.9,6.7-38.8,17.8-54.9,32.9c-16,15-29.3,33.8-38.1,55c-8.8,21.1-13.2,44.7-12.4,68.5 c0.8,23.9,6.7,48.1,17.6,70.4c-14.8-19.9-25.6-43.4-31.1-68.6c-5.5-25.2-5.8-52-0.2-78.2s16.9-51.5,33.3-73.9 s37.9-41.6,62.9-55.6L396.1,337.5z" class="st0"/><g><polygon points="359.5 273.3 450 296.6 384.5 363.4" class="st0"/></g></g></g></g></g></svg>