<?xml version="1.0" encoding="utf-8"?>
<!-- Generator: Adobe Illustrator 23.0.0, SVG Export Plug-In . SVG Version: 6.00 Build 0)  -->
<svg version="1.1" id="Layer_1" xmlns="http://www.w3.org/2000/svg" xmlns:xlink="http://www.w3.org/1999/xlink" x="0px" y="0px"
	 viewBox="0 0 952.6 952.6" style="enable-background:new 0 0 952.6 952.6;" xml:space="preserve">
<style type="text/css">
	.st0{fill:#232323;}
	.st1{fill:none;stroke:#232323;stroke-width:20;stroke-linecap:round;stroke-miterlimit:10;}
	.st2{fill:#232323;stroke:#232323;stroke-width:20;stroke-linecap:round;stroke-linejoin:round;stroke-miterlimit:10;}
	.st3{fill:none;stroke:#232323;stroke-width:28;stroke-miterlimit:10;}
</style>
<g>
	<path class="st3" d="M615.1,537.6c0,75.6-61.3,136.8-136.9,136.8c-63.2,0-116.4-42.8-132.1-101c-0.1-0.2-0.1-0.3-0.1-0.5
		c-0.5-1.9-0.9-3.8-1.4-5.7c0-0.1-0.1-0.3-0.1-0.4c-4.6-19.9-7-40.6-7-61.9c0-94.3,47.7-177.5,120.3-226.7
		c15.9,59.8,51.6,111.5,99.6,147.8c0,0,0,0,0.1,0.1c1.4,1,2.7,2,4.1,3C594.1,454.1,615.1,493.4,615.1,537.6z"/>
	<path class="st0" d="M555.8,467.3c0,0,76.6,70.7-2.9,146.3C552.9,613.6,582.4,542.6,555.8,467.3z"/>
</g>
</svg>
